HIERARCHY
ROOT hip
{
  OFFSET 0 90.174 2.4664
  CHANNELS 6 Xposition Yposition Zposition Zrotation Xrotation Yrotation
  JOINT abdomen
  {
    OFFSET 0 -1.186 -1.5018
    CHANNELS 6 Xposition Yposition Zposition Zrotation Xrotation Yrotation
    JOINT abdomen2
    {
      OFFSET 0 9.964 0.2134
      CHANNELS 6 Xposition Yposition Zposition Zrotation Xrotation Yrotation
      JOINT chest
      {
        OFFSET 0 13.134 -3.2573
        CHANNELS 6 Xposition Yposition Zposition Zrotation Xrotation Yrotation
        JOINT neck
        {
          OFFSET 0 20.686 -1.6905
          CHANNELS 6 Xposition Yposition Zposition Zrotation Xrotation Yrotation
          JOINT head
          {
            OFFSET 0 7.238 -0.1237
            CHANNELS 6 Xposition Yposition Zposition Zrotation Xrotation Yrotation
            End Site
            {
              OFFSET 0 0 0
            }
          }
        }
        JOINT lCollar
        {
          OFFSET 1.7069 20.075 5.0056
          CHANNELS 6 Xposition Yposition Zposition Zrotation Xrotation Yrotation
          JOINT lShldr
          {
            OFFSET 13.6458 -0.047 -4.849
            CHANNELS 6 Xposition Yposition Zposition Zrotation Xrotation Yrotation
            JOINT lForeArm
            {
              OFFSET 28.3255 -0.9759 2.2888
              CHANNELS 6 Xposition Yposition Zposition Zrotation Xrotation Yrotation
              JOINT lHand
              {
                OFFSET 22.1583 -0.53 10.8316
                CHANNELS 6 Xposition Yposition Zposition Zrotation Xrotation Yrotation
                JOINT lThumb1
                {
                  OFFSET 0.786 0.112 2.5817
                  CHANNELS 6 Xposition Yposition Zposition Zrotation Xrotation Yrotation
                  JOINT lThumb2
                  {
                    OFFSET 0.3601 -0.878 4.2331
                    CHANNELS 6 Xposition Yposition Zposition Zrotation Xrotation Yrotation
                    JOINT lThumb2_End
                    {
                      OFFSET 1.8127 -1.216 2.2227
                      CHANNELS 6 Xposition Yposition Zposition Zrotation Xrotation Yrotation
                      End Site
                      {
                        OFFSET 0.0181 -0.0122 0.0222
                      }
                    }
                  }
                }
                JOINT lCarpal1
                {
                  OFFSET 0.9571 1.114 1.7695
                  CHANNELS 6 Xposition Yposition Zposition Zrotation Xrotation Yrotation
                  JOINT lIndex1
                  {
                    OFFSET 4.1246 0.487 4.1451
                    CHANNELS 6 Xposition Yposition Zposition Zrotation Xrotation Yrotation
                    JOINT lIndex2
                    {
                      OFFSET 3.4052 -1.454 2.7682
                      CHANNELS 6 Xposition Yposition Zposition Zrotation Xrotation Yrotation
                      JOINT lIndex2_End
                      {
                        OFFSET 1.4531 -1.795 1.2713
                        CHANNELS 6 Xposition Yposition Zposition Zrotation Xrotation Yrotation
                        End Site
                        {
                          OFFSET 0.0145 -0.0179 0.0127
                        }
                      }
                    }
                  }
                  JOINT lMid1
                  {
                    OFFSET 5.6954 0.21 2.1184
                    CHANNELS 6 Xposition Yposition Zposition Zrotation Xrotation Yrotation
                    JOINT lMid2
                    {
                      OFFSET 3.9766 -1.54 2.3863
                      CHANNELS 6 Xposition Yposition Zposition Zrotation Xrotation Yrotation
                      JOINT lMid2_End
                      {
                        OFFSET 1.4042 -1.926 1.125
                        CHANNELS 6 Xposition Yposition Zposition Zrotation Xrotation Yrotation
                        End Site
                        {
                          OFFSET 0.014 -0.0193 0.0113
                        }
                      }
                    }
                  }
                }
                JOINT lCarpal2
                {
                  OFFSET 2.0956 0.66 -0.3894
                  CHANNELS 6 Xposition Yposition Zposition Zrotation Xrotation Yrotation
                  JOINT lRing1
                  {
                    OFFSET 5.0395 -0.09 2.4971
                    CHANNELS 6 Xposition Yposition Zposition Zrotation Xrotation Yrotation
                    JOINT lRing2
                    {
                      OFFSET 3.7921 -1.552 1.4806
                      CHANNELS 6 Xposition Yposition Zposition Zrotation Xrotation Yrotation
                      JOINT lRing2_End
                      {
                        OFFSET 1.4655 -1.808 0.9609
                        CHANNELS 6 Xposition Yposition Zposition Zrotation Xrotation Yrotation
                        End Site
                        {
                          OFFSET 0.0147 -0.0181 0.0096
                        }
                      }
                    }
                  }
                  JOINT lPinky1
                  {
                    OFFSET 4.9141 -1.269 0.3591
                    CHANNELS 6 Xposition Yposition Zposition Zrotation Xrotation Yrotation
                    JOINT lPinky2
                    {
                      OFFSET 3.1477 -1.685 0.8462
                      CHANNELS 6 Xposition Yposition Zposition Zrotation Xrotation Yrotation
                      JOINT lPinky2_End
                      {
                        OFFSET 0.8055 -1.585 0.7955
                        CHANNELS 6 Xposition Yposition Zposition Zrotation Xrotation Yrotation
                        End Site
                        {
                          OFFSET 0.0081 -0.0158 0.008
                        }
                      }
                    }
                  }
                }
              }
            }
          }
        }
        JOINT rCollar
        {
          OFFSET -1.7069 20.075 5.0056
          CHANNELS 6 Xposition Yposition Zposition Zrotation Xrotation Yrotation
          JOINT rShldr
          {
            OFFSET -13.6458 -0.047 -4.849
            CHANNELS 6 Xposition Yposition Zposition Zrotation Xrotation Yrotation
            JOINT rForeArm
            {
              OFFSET -28.3255 -0.9759 2.2888
              CHANNELS 6 Xposition Yposition Zposition Zrotation Xrotation Yrotation
              JOINT rHand
              {
                OFFSET -22.1583 -0.53 10.8316
                CHANNELS 6 Xposition Yposition Zposition Zrotation Xrotation Yrotation
                JOINT rThumb1
                {
                  OFFSET -0.786 0.112 2.5817
                  CHANNELS 6 Xposition Yposition Zposition Zrotation Xrotation Yrotation
                  JOINT rThumb2
                  {
                    OFFSET -0.3601 -0.878 4.2331
                    CHANNELS 6 Xposition Yposition Zposition Zrotation Xrotation Yrotation
                    JOINT rThumb2_End
                    {
                      OFFSET -1.8127 -1.216 2.2227
                      CHANNELS 6 Xposition Yposition Zposition Zrotation Xrotation Yrotation
                      End Site
                      {
                        OFFSET -0.0181 -0.0122 0.0222
                      }
                    }
                  }
                }
                JOINT rCarpal1
                {
                  OFFSET -0.9571 1.114 1.7695
                  CHANNELS 6 Xposition Yposition Zposition Zrotation Xrotation Yrotation
                  JOINT rIndex1
                  {
                    OFFSET -4.1246 0.487 4.1451
                    CHANNELS 6 Xposition Yposition Zposition Zrotation Xrotation Yrotation
                    JOINT rIndex2
                    {
                      OFFSET -3.4052 -1.454 2.7682
                      CHANNELS 6 Xposition Yposition Zposition Zrotation Xrotation Yrotation
                      JOINT rIndex2_End
                      {
                        OFFSET -1.4531 -1.795 1.2713
                        CHANNELS 6 Xposition Yposition Zposition Zrotation Xrotation Yrotation
                        End Site
                        {
                          OFFSET -0.0145 -0.018 0.0127
                        }
                      }
                    }
                  }
                  JOINT rMid1
                  {
                    OFFSET -5.6954 0.21 2.1184
                    CHANNELS 6 Xposition Yposition Zposition Zrotation Xrotation Yrotation
                    JOINT rMid2
                    {
                      OFFSET -3.9766 -1.54 2.3863
                      CHANNELS 6 Xposition Yposition Zposition Zrotation Xrotation Yrotation
                      JOINT rMid2_End
                      {
                        OFFSET -1.4042 -1.926 1.125
                        CHANNELS 6 Xposition Yposition Zposition Zrotation Xrotation Yrotation
                        End Site
                        {
                          OFFSET -0.014 -0.0193 0.0113
                        }
                      }
                    }
                  }
                }
                JOINT rCarpal2
                {
                  OFFSET -2.0956 0.66 -0.3894
                  CHANNELS 6 Xposition Yposition Zposition Zrotation Xrotation Yrotation
                  JOINT rRing1
                  {
                    OFFSET -5.0395 -0.09 2.4971
                    CHANNELS 6 Xposition Yposition Zposition Zrotation Xrotation Yrotation
                    JOINT rRing2
                    {
                      OFFSET -3.7921 -1.552 1.4806
                      CHANNELS 6 Xposition Yposition Zposition Zrotation Xrotation Yrotation
                      JOINT rRing2_End
                      {
                        OFFSET -1.4655 -1.808 0.9609
                        CHANNELS 6 Xposition Yposition Zposition Zrotation Xrotation Yrotation
                        End Site
                        {
                          OFFSET -0.0147 -0.0181 0.0096
                        }
                      }
                    }
                  }
                  JOINT rPinky1
                  {
                    OFFSET -4.9141 -1.269 0.3592
                    CHANNELS 6 Xposition Yposition Zposition Zrotation Xrotation Yrotation
                    JOINT rPinky2
                    {
                      OFFSET -3.1477 -1.685 0.8462
                      CHANNELS 6 Xposition Yposition Zposition Zrotation Xrotation Yrotation
                      JOINT rPinky2_End
                      {
                        OFFSET -0.8055 -1.585 0.7955
                        CHANNELS 6 Xposition Yposition Zposition Zrotation Xrotation Yrotation
                        End Site
                        {
                          OFFSET -0.0081 -0.0158 0.008
                        }
                      }
                    }
                  }
                }
              }
            }
          }
        }
      }
    }
  }
  JOINT lThigh
  {
    OFFSET 8.367 -8.2066 0.5982
    CHANNELS 6 Xposition Yposition Zposition Zrotation Xrotation Yrotation
    JOINT lShin
    {
      OFFSET 2.1923 -43.463 -0.4932
      CHANNELS 6 Xposition Yposition Zposition Zrotation Xrotation Yrotation
      JOINT lFoot
      {
        OFFSET 0.7333 -45.8593 -2.6451
        CHANNELS 6 Xposition Yposition Zposition Zrotation Xrotation Yrotation
        End Site
        {
          OFFSET 2.6618 -4.2699 12.3931
        }
      }
    }
  }
  JOINT rThigh
  {
    OFFSET -8.367 -8.2066 0.5982
    CHANNELS 6 Xposition Yposition Zposition Zrotation Xrotation Yrotation
    JOINT rShin
    {
      OFFSET -2.1923 -43.463 -0.4931
      CHANNELS 6 Xposition Yposition Zposition Zrotation Xrotation Yrotation
      JOINT rFoot
      {
        OFFSET -0.7333 -45.8593 -2.6451
        CHANNELS 6 Xposition Yposition Zposition Zrotation Xrotation Yrotation
        End Site
        {
          OFFSET -2.6618 -4.2699 12.3931
        }
      }
    }
  }
}
MOTION
Frames:	4
Frame Time:	0.0333333
0.784758 17.2676 2.63118 173.405 -88.2826 -6.38877 -1.11022e-016 -1.186 -1.5018 -0.0937336 -3.60124 -0.280082 0 9.964 0.2134 -0.205755 -7.20198 -0.567767 -1.11022e-016 13.134 -3.2573 -0.205755 -7.20195 -0.567767 0 20.686 -1.6905 7.00787 -2.93523 -4.641 8.88178e-016 7.238 -0.1237 8.54466e-008 -13.086 1.06079e-007 1.7069 20.075 5.0056 10.55 6.08122 -17.0441 13.6458 -0.047 -4.849 -15.4226 -17.9727 -25.3787 28.3255 -0.9759 2.2888 3.24862 7.18387 -29.9006 22.1583 -0.53 10.8316 57.2056 -19.8536 4.99878 0.786 0.112 2.5817 6.62086e-032 -1.19271e-015 3.18055e-015 0.3601 -0.878 4.2331 -0 -7.95139e-016 -0 1.8127 -1.216 2.2227 -1.59028e-015 -1.98785e-015 3.18055e-015 0.9571 1.114 1.7695 0 3.97569e-016 -0 4.1246 0.487 4.1451 1.10348e-031 -1.98785e-015 3.18055e-015 3.4052 -1.454 2.7682 -1.59028e-015 -1.19271e-015 -0 1.4531 -1.795 1.2713 6.62086e-032 -1.19271e-015 3.18055e-015 5.6954 0.21 2.1184 1.10348e-031 -1.98785e-015 3.18055e-015 3.9766 -1.54 2.3863 -1.59028e-015 -1.19271e-015 -0 1.4042 -1.926 1.125 6.62086e-032 -1.19271e-015 3.18055e-015 2.0956 0.66 -0.3894 0 3.97569e-016 -0 5.0395 -0.09 2.4971 1.10348e-031 -1.98785e-015 3.18055e-015 3.7921 -1.552 1.4806 -1.59028e-015 -1.19271e-015 -0 1.4655 -1.808 0.9609 6.62086e-032 -1.19271e-015 3.18055e-015 4.9141 -1.269 0.3591 1.10348e-031 -1.98785e-015 3.18055e-015 3.1477 -1.685 0.8462 -1.59028e-015 -1.19271e-015 -0 0.8055 -1.585 0.7955 6.62086e-032 -1.19271e-015 3.18055e-015 -1.7069 20.075 5.0056 22.6221 3.46902 2.47847 -13.6458 -0.047 -4.849 7.21567 8.19208 36.9213 -28.3255 -0.9759 2.2888 -12.3551 -14.5943 9.30575 -22.1583 -0.53 10.8316 -56.3333 -17.2208 -7.06631 -0.786 0.112 2.5817 -1.59028e-015 -3.18055e-015 3.18055e-015 -0.3601 -0.878 4.2331 -1.59028e-015 0 3.18055e-015 -1.8127 -1.216 2.2227 -3.18055e-015 -1.59028e-015 -3.18055e-015 -0.9571 1.114 1.7695 -1.59028e-015 -4.77083e-015 3.18055e-015 -4.1246 0.487 4.1451 -3.18055e-015 -1.59028e-015 1.59028e-014 -3.4052 -1.454 2.7682 -1.59028e-015 0 -3.18055e-015 -1.4531 -1.795 1.2713 -1.59028e-015 0 -3.18055e-015 -5.6954 0.21 2.1184 -3.18055e-015 -1.59028e-015 1.59028e-014 -3.9766 -1.54 2.3863 -1.59028e-015 0 -3.18055e-015 -1.4042 -1.926 1.125 -1.59028e-015 0 -3.18055e-015 -2.0956 0.66 -0.3894 -1.59028e-015 -4.77083e-015 3.18055e-015 -5.0395 -0.09 2.4971 -3.18055e-015 -1.59028e-015 1.59028e-014 -3.7921 -1.552 1.4806 -1.59028e-015 0 -3.18055e-015 -1.4655 -1.808 0.9609 -1.59028e-015 0 -3.18055e-015 -4.9141 -1.269 0.3592 -3.18055e-015 -1.59028e-015 1.59028e-014 -3.1477 -1.685 0.8462 -1.59028e-015 0 -3.18055e-015 -0.8055 -1.585 0.7955 -1.59028e-015 0 -3.18055e-015 8.367 -8.2066 0.5982 11.0894 -36.0861 24.0571 2.1923 -43.463 -0.4932 -4.10035 32.1539 2.7594 0.7333 -45.8593 -2.6451 3.55693 57.6355 -5.95892 -8.367 -8.2066 0.5982 -11.9425 -36.9782 -24.6064 -2.1923 -43.463 -0.4931 4.27511 33.8874 -2.59437 -0.7333 -45.8593 -2.6451 -3.53673 58.0037 6.06013 
0.784114 17.2974 2.71605 174.868 -87.714 -4.91906 0 -1.186 -1.5018 -0.0928289 -3.6518 -0.280551 -1.11022e-016 9.964 0.2134 -0.204241 -7.3031 -0.568782 1.11022e-016 13.134 -3.2573 -0.204241 -7.3031 -0.568782 -2.22045e-016 20.686 -1.6905 7.00992 -3.23525 -4.604 8.88178e-016 7.238 -0.1237 -8.67528e-007 -13.1304 2.06799e-007 1.7069 20.075 5.0056 10.7125 5.81707 -16.745 13.6458 -0.047 -4.849 -15.4728 -17.9433 -25.4647 28.3255 -0.9759 2.2888 3.2431 7.17312 -30.2319 22.1583 -0.53 10.8316 57.2486 -19.7891 5.23226 0.786 0.112 2.5817 -1.86863e-007 -1.13009e-006 -1.66423e-006 0.3601 -0.878 4.2331 3.18055e-015 2.78299e-015 -0 1.8127 -1.216 2.2227 4.77083e-015 3.57812e-015 -0 0.9571 1.114 1.7695 3.18055e-015 7.95139e-016 3.18055e-015 4.1246 0.487 4.1451 -1.86863e-007 -1.13009e-006 -1.66423e-006 3.4052 -1.454 2.7682 3.18055e-015 3.18055e-015 -0 1.4531 -1.795 1.2713 4.77083e-015 3.57812e-015 -0 5.6954 0.21 2.1184 -1.86863e-007 -1.13009e-006 -1.66423e-006 3.9766 -1.54 2.3863 3.18055e-015 3.18055e-015 -0 1.4042 -1.926 1.125 4.77083e-015 3.57812e-015 -0 2.0956 0.66 -0.3894 3.18055e-015 7.95139e-016 3.18055e-015 5.0395 -0.09 2.4971 -1.86863e-007 -1.13009e-006 -1.66423e-006 3.7921 -1.552 1.4806 3.18055e-015 3.18055e-015 -0 1.4655 -1.808 0.9609 4.77083e-015 3.57812e-015 -0 4.9141 -1.269 0.3591 -1.86863e-007 -1.13009e-006 -1.66423e-006 3.1477 -1.685 0.8462 3.18055e-015 3.18055e-015 -0 0.8055 -1.585 0.7955 4.77083e-015 3.57812e-015 -0 -1.7069 20.075 5.0056 22.4816 3.32954 2.3299 -13.6458 -0.047 -4.849 7.24078 8.21903 37.0795 -28.3255 -0.9759 2.2888 -12.3747 -14.619 9.48289 -22.1583 -0.53 10.8316 -56.4024 -17.2565 -7.24025 -0.786 0.112 2.5817 3.63248e-007 -2.27784e-007 3.33546e-006 -0.3601 -0.878 4.2331 -3.63248e-007 2.27784e-007 -3.33546e-006 -1.8127 -1.216 2.2227 3.63248e-007 -2.27784e-007 3.33546e-006 -0.9571 1.114 1.7695 1.59028e-015 -3.18055e-015 -6.36111e-015 -4.1246 0.487 4.1451 3.63248e-007 -2.27784e-007 3.33546e-006 -3.4052 -1.454 2.7682 -3.63248e-007 2.27784e-007 -3.33546e-006 -1.4531 -1.795 1.2713 3.63248e-007 -2.27784e-007 3.33546e-006 -5.6954 0.21 2.1184 3.63248e-007 -2.27784e-007 3.33546e-006 -3.9766 -1.54 2.3863 -3.63248e-007 2.27784e-007 -3.33546e-006 -1.4042 -1.926 1.125 3.63248e-007 -2.27784e-007 3.33546e-006 -2.0956 0.66 -0.3894 1.59028e-015 -3.18055e-015 -6.36111e-015 -5.0395 -0.09 2.4971 3.63248e-007 -2.27784e-007 3.33546e-006 -3.7921 -1.552 1.4806 -3.63248e-007 2.27784e-007 -3.33546e-006 -1.4655 -1.808 0.9609 3.63248e-007 -2.27784e-007 3.33546e-006 -4.9141 -1.269 0.3592 3.63248e-007 -2.27784e-007 3.33546e-006 -3.1477 -1.685 0.8462 -3.63248e-007 2.27784e-007 -3.33546e-006 -0.8055 -1.585 0.7955 3.63248e-007 -2.27784e-007 3.33546e-006 8.367 -8.2066 0.5982 11.3476 -36.822 24.5196 2.1923 -43.463 -0.4932 -4.0975 32.3866 2.76521 0.7333 -45.8593 -2.6451 3.94063 57.6096 -6.34292 -8.367 -8.2066 0.5982 -12.1961 -37.692 -25.0852 -2.1923 -43.463 -0.4931 4.25971 34.0863 -2.5923 -0.7333 -45.8593 -2.6451 -3.93884 57.9946 6.4557 
0.783473 17.3275 2.80139 175.747 -87.1447 -4.03402 0 -1.186 -1.5018 -0.0919231 -3.70237 -0.281015 1.11022e-016 9.964 0.2134 -0.202723 -7.40422 -0.569787 0 13.134 -3.2573 -0.202723 -7.40424 -0.569787 2.22045e-016 20.686 -1.6905 7.01205 -3.53624 -4.56698 0 7.238 -0.1237 1.18508e-006 -13.1748 -1.74232e-006 1.7069 20.075 5.0056 10.8763 5.55385 -16.4454 13.6458 -0.047 -4.849 -15.5229 -17.9137 -25.5506 28.3255 -0.9759 2.2888 3.23749 7.1624 -30.5632 22.1583 -0.53 10.8316 57.2912 -19.7244 5.46562 0.786 0.112 2.5817 -1.59028e-015 -1.59028e-015 6.36111e-015 0.3601 -0.878 4.2331 -0 0 3.18055e-015 1.8127 -1.216 2.2227 -1.59028e-015 3.97569e-016 3.18055e-015 0.9571 1.114 1.7695 -1.59028e-015 -1.59028e-015 3.18055e-015 4.1246 0.487 4.1451 -1.59028e-015 3.97569e-016 6.36111e-015 3.4052 -1.454 2.7682 -3.18055e-015 0 -0 1.4531 -1.795 1.2713 -1.59028e-015 -3.97569e-016 -0 5.6954 0.21 2.1184 -1.59028e-015 3.97569e-016 6.36111e-015 3.9766 -1.54 2.3863 -3.18055e-015 0 -0 1.4042 -1.926 1.125 -1.59028e-015 -3.97569e-016 -0 2.0956 0.66 -0.3894 -1.59028e-015 -1.59028e-015 3.18055e-015 5.0395 -0.09 2.4971 -1.59028e-015 3.97569e-016 6.36111e-015 3.7921 -1.552 1.4806 -3.18055e-015 0 -0 1.4655 -1.808 0.9609 -1.59028e-015 -3.97569e-016 -0 4.9141 -1.269 0.3591 -1.59028e-015 3.97569e-016 6.36111e-015 3.1477 -1.685 0.8462 -3.18055e-015 0 -0 0.8055 -1.585 0.7955 -1.59028e-015 -3.97569e-016 -0 -1.7069 20.075 5.0056 22.3408 3.19045 2.18099 -13.6458 -0.047 -4.849 7.26581 8.24602 37.2377 -28.3255 -0.9759 2.2888 -12.3941 -14.6437 9.66004 -22.1583 -0.53 10.8316 -56.4717 -17.2921 -7.41428 -0.786 0.112 2.5817 0 0 -6.36111e-015 -0.3601 -0.878 4.2331 -3.18055e-015 -1.59028e-015 -3.18055e-015 -1.8127 -1.216 2.2227 0 0 -0 -0.9571 1.114 1.7695 0 0 -6.36111e-015 -4.1246 0.487 4.1451 -3.18055e-015 0 -3.18055e-015 -3.4052 -1.454 2.7682 -1.59028e-015 0 -0 -1.4531 -1.795 1.2713 -1.59028e-015 3.18055e-015 -0 -5.6954 0.21 2.1184 -3.18055e-015 0 -3.18055e-015 -3.9766 -1.54 2.3863 -1.59028e-015 0 -0 -1.4042 -1.926 1.125 -1.59028e-015 3.18055e-015 -0 -2.0956 0.66 -0.3894 0 0 -6.36111e-015 -5.0395 -0.09 2.4971 -3.18055e-015 0 -3.18055e-015 -3.7921 -1.552 1.4806 -1.59028e-015 0 -0 -1.4655 -1.808 0.9609 -1.59028e-015 3.18055e-015 -0 -4.9141 -1.269 0.3592 -3.18055e-015 0 -3.18055e-015 -3.1477 -1.685 0.8462 -1.59028e-015 0 -0 -0.8055 -1.585 0.7955 -1.59028e-015 3.18055e-015 -0 8.367 -8.2066 0.5982 11.6154 -37.5559 24.9905 2.1923 -43.463 -0.4932 -4.09473 32.6191 2.77103 0.7333 -45.8593 -2.6451 4.3238 57.5824 -6.72629 -8.367 -8.2066 0.5982 -12.4593 -38.4037 -25.5723 -2.1923 -43.463 -0.4931 4.24427 34.285 -2.59015 -0.7333 -45.8593 -2.6451 -4.34076 57.984 6.851 
0.782834 17.3577 2.88719 176.333 -86.5751 -3.44238 0 -1.186 -1.5018 -0.0910144 -3.75288 -0.281471 -2.22045e-016 9.964 0.2134 -0.2012 -7.50526 -0.570775 0 13.134 -3.2573 -0.2012 -7.50528 -0.570775 0 20.686 -1.6905 7.01448 -3.83648 -4.52991 8.88178e-016 7.238 -0.1237 -2.55047e-007 -13.2192 -1.33884e-006 1.7069 20.075 5.0056 11.0414 5.29142 -16.1452 13.6458 -0.047 -4.849 -15.573 -17.8841 -25.6364 28.3255 -0.9759 2.2888 3.23182 7.15171 -30.8945 22.1583 -0.53 10.8316 57.3336 -19.6596 5.69881 0.786 0.112 2.5817 -5.75244e-007 3.6795e-007 -3.9757e-006 0.3601 -0.878 4.2331 -1.59028e-015 1.19271e-015 -0 1.8127 -1.216 2.2227 -1.37793e-006 -9.93924e-007 -9.19874e-008 0.9571 1.114 1.7695 0 3.97569e-016 -0 4.1246 0.487 4.1451 -5.75244e-007 3.6795e-007 -3.9757e-006 3.4052 -1.454 2.7682 -1.59028e-015 1.59028e-015 -3.18055e-015 1.4531 -1.795 1.2713 -1.37793e-006 -9.93924e-007 -9.19874e-008 5.6954 0.21 2.1184 -5.75244e-007 3.6795e-007 -3.9757e-006 3.9766 -1.54 2.3863 -1.59028e-015 1.59028e-015 -3.18055e-015 1.4042 -1.926 1.125 -1.37793e-006 -9.93924e-007 -9.19874e-008 2.0956 0.66 -0.3894 0 3.97569e-016 -0 5.0395 -0.09 2.4971 -5.75244e-007 3.6795e-007 -3.9757e-006 3.7921 -1.552 1.4806 -1.59028e-015 1.59028e-015 -3.18055e-015 1.4655 -1.808 0.9609 -1.37793e-006 -9.93924e-007 -9.19874e-008 4.9141 -1.269 0.3591 -5.75244e-007 3.6795e-007 -3.9757e-006 3.1477 -1.685 0.8462 -1.59028e-015 1.59028e-015 -3.18055e-015 0.8055 -1.585 0.7955 -1.37793e-006 -9.93924e-007 -9.19874e-008 -1.7069 20.075 5.0056 22.1996 3.05166 2.03179 -13.6458 -0.047 -4.849 7.29078 8.27305 37.396 -28.3255 -0.9759 2.2888 -12.4134 -14.6684 9.83721 -22.1583 -0.53 10.8316 -56.541 -17.3274 -7.58834 -0.786 0.112 2.5817 -1.13655e-007 -1.74146e-006 7.08759e-008 -0.3601 -0.878 4.2331 -1.32286e-006 -1.35391e-006 -9.52131e-008 -1.8127 -1.216 2.2227 -8.06138e-007 2.58362e-007 -1.10726e-007 -0.9571 1.114 1.7695 0 0 -0 -4.1246 0.487 4.1451 -1.13655e-007 -1.74146e-006 7.08759e-008 -3.4052 -1.454 2.7682 -1.32286e-006 -1.35391e-006 -9.52131e-008 -1.4531 -1.795 1.2713 -8.06138e-007 2.58362e-007 -1.10726e-007 -5.6954 0.21 2.1184 -1.13655e-007 -1.74146e-006 7.08759e-008 -3.9766 -1.54 2.3863 -1.32286e-006 -1.35391e-006 -9.52131e-008 -1.4042 -1.926 1.125 -8.06138e-007 2.58362e-007 -1.10726e-007 -2.0956 0.66 -0.3894 0 0 -0 -5.0395 -0.09 2.4971 -1.13655e-007 -1.74146e-006 7.08759e-008 -3.7921 -1.552 1.4806 -1.32286e-006 -1.35391e-006 -9.52131e-008 -1.4655 -1.808 0.9609 -8.06138e-007 2.58362e-007 -1.10726e-007 -4.9141 -1.269 0.3592 -1.13655e-007 -1.74146e-006 7.08759e-008 -3.1477 -1.685 0.8462 -1.32286e-006 -1.35391e-006 -9.52131e-008 -0.8055 -1.585 0.7955 -8.06138e-007 2.58362e-007 -1.10726e-007 8.367 -8.2066 0.5982 11.893 -38.2875 25.47 2.1923 -43.463 -0.4932 -4.09194 32.8513 2.77681 0.7333 -45.8593 -2.6451 4.70634 57.5539 -7.10896 -8.367 -8.2066 0.5982 -12.7325 -39.1133 -26.0681 -2.1923 -43.463 -0.4931 4.22881 34.4836 -2.58797 -0.7333 -45.8593 -2.6451 -4.74248 57.9719 7.24598 
